<svg xmlns="http://www.w3.org/2000/svg" viewBox="0 0 24 24" width="24" height="24">
  <path fill="#4285F4" d="M21.8,12.2c0-0.7-0.1-1.3-0.2-1.9h-9.6v3.8h5.5c-0.2,1.3-1,2.4-2.1,3.1v2.6h3.4C20.6,17.8,21.8,15.3,21.8,12.2z"/>
  <path fill="#34A853" d="M12,22c2.8,0,5.2-0.9,7-2.5l-3.4-2.6c-0.9,0.6-2.1,1-3.5,1c-2.7,0-5-1.8-5.8-4.3H2.8v2.7C4.6,19.7,8,22,12,22z"/>
  <path fill="#FBBC05" d="M6.2,13.5c-0.2-0.6-0.3-1.3-0.3-2s0.1-1.4,0.3-2V6.8H2.8C2,8.3,1.6,10.1,1.6,12s0.5,3.7,1.2,5.2L6.2,13.5z"/>
  <path fill="#EA4335" d="M12,5.4c1.5,0,2.9,0.5,4,1.5l3-3c-1.8-1.7-4.2-2.7-7-2.7C8,1.2,4.6,3.5,2.8,6.8l3.4,2.7C7,6.9,9.3,5.4,12,5.4z"/>
</svg> 